# xmcd
#
# Track frame offsets:
#        150
#        16232
#        35880
#        52932
#        67915
#        82692
#        96012
#        112147
#        125487
#        139697
#        155412
#        166792
#        182135
#        201712
#        217687
#
# Disc length: 3119 seconds
#
# Revision: 0
# Processed by: cddbd v1.5.1PL0 Copyright (c) Steve Scherf et al.
# Submitted via: ExactAudioCopy v0.95a5
#
DISCID=c60c2d0f
DTITLE=Luther Ingram - Let's Steal Away To The Hideaway
DYEAR=1900
DGENRE=Soul
TTITLE0=These Are The Things
TTITLE1=Let's Steal Away to the Hideaway
TTITLE2=That's The Way Love Is
TTITLE3=Sweet Inspiration
TTITLE4=I'm Gonna Be The Best Thing
TTITLE5=I Like The Feeling
TTITLE6=All That Shines
TTITLE7=What Goes Around Comes Around
TTITLE8=It's Too Much
TTITLE9=Your Love Is Something Special
TTITLE10=I've Got Your Love In My Life
TTITLE11=Do You Love Somebody
TTITLE12=Get to Me
TTITLE13=Trying To Find My Love
TTITLE14=Faces
EXTD=
EXTT0=
EXTT1=
EXTT2=
EXTT3=
EXTT4=
EXTT5=
EXTT6=
EXTT7=
EXTT8=
EXTT9=
EXTT10=
EXTT11=
EXTT12=
EXTT13=
EXTT14=
PLAYORDER=
